# Blender v2.91.2 OBJ File: ''
# www.blender.org
mtllib rock 1.mtl
o Sphere
v 0.003448 0.490794 -0.386300
v 0.162866 0.328714 -0.632313
v 0.250573 -0.032167 -0.904982
v 0.180644 -0.502996 -1.240911
v 0.568435 0.319498 -0.151787
v 0.913926 0.119577 -0.264044
v 1.031920 -0.120302 -0.082416
v 1.311562 -0.489262 -0.390463
v 0.354909 0.319498 0.505377
v 0.568435 0.119577 0.799270
v 0.568435 -0.124738 0.799270
v 1.228575 -0.493996 0.901541
v 0.000000 -0.368379 0.000000
v -0.336074 0.319498 0.505377
v -0.549599 0.119577 0.799270
v -0.677522 0.017452 0.781165
v -0.693061 -0.454031 1.057736
v -0.314474 0.456318 -0.207571
v -0.895091 0.119577 -0.264044
v -0.971932 0.013475 -0.591994
v -1.393371 -0.495303 -0.632896
vt 0.500000 0.000000
vt 0.600000 0.200000
vt 0.400000 0.200000
vt 0.600000 0.400000
vt 0.600000 0.600000
vt 0.400000 0.600000
vt 0.400000 0.400000
vt 0.600000 0.800000
vt 0.400000 0.800000
vt 0.300000 0.000000
vt 0.200000 0.200000
vt 0.200000 0.600000
vt 0.200000 0.400000
vt 0.200000 0.800000
vt 0.100000 0.000000
vt 0.000000 0.200000
vt 0.000000 0.600000
vt 0.000000 0.400000
vt 0.000000 0.800000
vt 0.900000 0.000000
vt 1.000000 0.200000
vt 0.800000 0.200000
vt 1.000000 0.400000
vt 1.000000 0.600000
vt 0.800000 0.600000
vt 0.800000 0.400000
vt 1.000000 0.800000
vt 0.800000 0.800000
vt 0.700000 0.000000
vn -0.0622 -0.9932 0.0987
vn 0.6192 0.3206 -0.7168
vn 0.5436 0.5920 -0.5950
vn 0.3943 0.8629 -0.3162
vn -0.0946 -0.9955 -0.0097
vn 0.8659 0.3464 0.3609
vn 0.6313 0.7585 0.1619
vn 0.5349 0.8268 0.1738
vn -0.0288 -0.9946 -0.0994
vn -0.0106 -0.0483 0.9988
vn 0.0647 0.4508 0.8903
vn 0.0000 0.8268 0.5625
vn 0.0981 -0.9950 -0.0163
vn -0.8546 0.4686 0.2237
vn -0.8534 0.4455 0.2705
vn -0.5196 0.8394 0.1594
vn 0.0389 -0.9928 0.1134
vn -0.2339 0.7655 -0.5994
vn -0.2697 0.4606 -0.8456
vn -0.3697 0.6897 -0.6226
vn 0.0878 0.9841 0.1544
usemtl Material.001
s off
f 13/1/1 4/2/1 8/3/1
f 3/4/2 2/5/2 6/6/2 7/7/2
f 4/2/3 3/4/3 7/7/3 8/3/3
f 2/5/4 1/8/4 5/9/4 6/6/4
f 13/10/5 8/3/5 12/11/5
f 7/7/6 6/6/6 10/12/6 11/13/6
f 8/3/7 7/7/7 11/13/7 12/11/7
f 6/6/8 5/9/8 9/14/8 10/12/8
f 13/15/9 12/11/9 17/16/9
f 11/13/10 10/12/10 15/17/10 16/18/10
f 12/11/11 11/13/11 16/18/11 17/16/11
f 10/12/12 9/14/12 14/19/12 15/17/12
f 13/20/13 17/21/13 21/22/13
f 16/23/14 15/24/14 19/25/14 20/26/14
f 17/21/15 16/23/15 20/26/15 21/22/15
f 15/24/16 14/27/16 18/28/16 19/25/16
f 13/29/17 21/22/17 4/2/17
f 20/26/18 19/25/18 2/5/18 3/4/18
f 21/22/19 20/26/19 3/4/19 4/2/19
f 19/25/20 18/28/20 1/8/20 2/5/20
f 5/9/21 1/8/21 18/28/21 14/19/21 9/14/21
