# Blender v2.91.2 OBJ File: ''
# www.blender.org
mtllib yellow flower.mtl
o Cube_Cube.001
v -0.393314 -0.369108 0.554748
v 0.484441 7.871535 0.217584
v -0.010793 -0.339599 -0.404199
v 0.027277 8.217253 0.216806
v 0.415868 -0.492791 0.379016
v 0.450878 6.712724 0.330746
v 0.145915 -0.536002 -0.040305
v 0.151412 7.916026 -0.410953
vt 0.375000 0.000000
vt 0.625000 0.000000
vt 0.625000 0.250000
vt 0.375000 0.250000
vt 0.625000 0.500000
vt 0.372043 0.498548
vt 0.625000 0.750000
vt 0.375000 0.750000
vt 0.625000 1.000000
vt 0.375000 1.000000
vt 0.125000 0.500000
vt 0.125000 0.750000
vt 0.875000 0.500000
vt 0.875000 0.750000
vn -0.9938 0.0525 0.0978
vn -0.6727 0.0126 -0.7398
vn 0.8920 -0.0144 -0.4519
vn 0.1104 0.0183 0.9937
vn -0.3117 -0.9500 -0.0160
vn 0.8698 0.2111 -0.4459
usemtl Material.003
s off
f 1/1/1 2/2/1 4/3/1 3/4/1
f 3/4/2 4/3/2 8/5/2 7/6/2
f 7/6/3 8/5/3 6/7/3 5/8/3
f 5/8/4 6/7/4 2/9/4 1/10/4
f 3/11/5 7/6/5 5/8/5 1/12/5
f 8/5/6 4/13/6 2/14/6 6/7/6
o Cube.002_Cube.003
v 0.774568 9.407505 1.697183
v 0.660866 10.158872 1.398153
v 0.510571 8.156926 0.716187
v 0.867856 10.735527 0.635188
v 1.688666 9.536036 -0.280347
v 1.415992 10.086730 -0.264992
v 0.956799 8.056786 -0.210946
v 1.039455 10.703322 0.225584
vt 0.375000 0.000000
vt 0.625000 0.000000
vt 0.625000 0.250000
vt 0.375000 0.250000
vt 0.625000 0.500000
vt 0.375000 0.500000
vt 0.625000 0.750000
vt 0.375000 0.750000
vt 0.625000 1.000000
vt 0.375000 1.000000
vt 0.125000 0.500000
vt 0.125000 0.750000
vt 0.875000 0.500000
vt 0.875000 0.750000
vn -0.9973 0.0734 0.0042
vn -0.8988 0.1046 -0.4258
vn -0.5048 0.0913 -0.8584
vn 0.8530 0.3395 0.3964
vn 0.8208 -0.4264 0.3802
vn 0.8953 0.2161 0.3894
usemtl Material.001
s off
f 9/15/7 10/16/7 12/17/7 11/18/7
f 11/18/8 12/17/8 16/19/8 15/20/8
f 15/20/9 16/19/9 14/21/9 13/22/9
f 13/22/10 14/21/10 10/23/10 9/24/10
f 11/25/11 15/20/11 13/22/11 9/26/11
f 16/19/12 12/27/12 10/28/12 14/21/12
o Cube.003_Cube.004
v 1.667613 9.400556 -0.430640
v 1.457639 10.044182 -0.557232
v 0.986127 8.096704 -0.193727
v 0.732203 10.644882 -0.504733
v -0.359131 9.457290 -1.491893
v -0.117828 10.061599 -1.328765
v -0.128700 8.127782 -0.755625
v 0.352831 10.630593 -0.672235
vt 0.375000 0.000000
vt 0.625000 0.000000
vt 0.625000 0.250000
vt 0.375000 0.250000
vt 0.625000 0.500000
vt 0.375000 0.500000
vt 0.625000 0.750000
vt 0.375000 0.750000
vt 0.625000 1.000000
vt 0.375000 1.000000
vt 0.125000 0.500000
vt 0.125000 0.750000
vt 0.875000 0.500000
vt 0.875000 0.750000
vn 0.1254 0.1526 0.9803
vn -0.4373 0.0601 0.8973
vn -0.8454 0.1561 0.5108
vn 0.4537 0.0147 -0.8911
vn 0.4168 -0.3771 -0.8271
vn 0.3653 0.5394 -0.7587
usemtl Material.001
s off
f 17/29/13 18/30/13 20/31/13 19/32/13
f 19/32/14 20/31/14 24/33/14 23/34/14
f 23/34/15 24/33/15 22/35/15 21/36/15
f 21/36/16 22/35/16 18/37/16 17/38/16
f 19/39/17 23/34/17 21/36/17 17/40/17
f 24/33/18 20/41/18 18/42/18 22/35/18
o Cube.004_Cube.005
v -0.345278 9.424496 -1.371398
v -0.463991 10.068122 -1.156872
v -0.083240 8.120644 -0.699173
v -0.384608 10.668822 -0.433883
v -1.193742 9.429482 0.644600
v -0.996264 10.107832 0.483142
v -0.603380 8.151722 0.435737
v -0.537917 10.654533 -0.048557
vt 0.375000 0.000000
vt 0.625000 0.000000
vt 0.625000 0.250000
vt 0.375000 0.250000
vt 0.625000 0.500000
vt 0.375000 0.500000
vt 0.625000 0.750000
vt 0.375000 0.750000
vt 0.625000 1.000000
vt 0.375000 1.000000
vt 0.125000 0.500000
vt 0.125000 0.750000
vt 0.875000 0.500000
vt 0.875000 0.750000
vn 0.9750 0.1526 -0.1617
vn 0.9129 0.0601 0.4037
vn 0.6219 0.1061 0.7759
vn -0.9329 0.0698 -0.3532
vn -0.8605 -0.3505 -0.3697
vn -0.8464 0.4453 -0.2921
usemtl Material.001
s off
f 25/43/19 26/44/19 28/45/19 27/46/19
f 27/46/20 28/45/20 32/47/20 31/48/20
f 31/48/21 32/47/21 30/49/21 29/50/21
f 29/50/22 30/49/22 26/51/22 25/52/22
f 27/53/23 31/48/23 29/50/23 25/54/23
f 32/47/24 28/55/24 26/56/24 30/49/24
o Cube.001_Cube.006
v -1.233873 9.503609 0.650954
v -1.021187 10.147235 0.772933
v -0.557720 8.199757 0.399224
v -0.297069 10.747935 0.704614
v 0.715856 9.515118 1.767680
v 0.570744 10.164652 1.509897
v 0.528858 8.250293 0.789905
v 0.085868 10.733646 0.863796
vt 0.375000 0.000000
vt 0.625000 0.000000
vt 0.625000 0.250000
vt 0.375000 0.250000
vt 0.625000 0.500000
vt 0.375000 0.500000
vt 0.625000 0.750000
vt 0.375000 0.750000
vt 0.625000 1.000000
vt 0.375000 1.000000
vt 0.125000 0.500000
vt 0.125000 0.750000
vt 0.875000 0.500000
vt 0.875000 0.750000
vn -0.1467 0.1526 -0.9773
vn 0.3474 0.0830 -0.9340
vn 0.8917 0.1422 -0.4298
vn -0.4613 0.1165 0.8796
vn -0.3880 -0.4570 0.8004
vn -0.3487 0.5394 0.7665
usemtl Material.001
s off
f 33/57/25 34/58/25 36/59/25 35/60/25
f 35/60/26 36/59/26 40/61/26 39/62/26
f 39/62/27 40/61/27 38/63/27 37/64/27
f 37/64/28 38/63/28 34/65/28 33/66/28
f 35/67/29 39/62/29 37/64/29 33/68/29
f 40/61/30 36/69/30 34/70/30 38/63/30
o Cylinder_Cylinder.001
v 0.240928 7.950057 -0.647378
v 0.240928 8.219958 -0.647378
v 0.705651 7.950057 -0.410907
v 0.705651 8.219958 -0.410907
v 1.063912 7.950057 -0.217601
v 1.063912 8.219958 -0.217601
v 0.941478 7.950057 -0.058389
v 0.941478 8.219958 -0.058389
v 0.781995 7.966195 0.275162
v 0.781995 8.236096 0.275162
v 0.632803 7.965344 0.593286
v 0.632963 8.235246 0.611011
v 0.534907 7.949634 0.776911
v 0.534907 8.219536 0.817628
v -0.038245 7.937512 0.623645
v -0.038245 8.207415 0.644849
v -0.461526 7.937512 0.473671
v -0.461526 8.207415 0.473671
v -0.602438 7.918910 0.370695
v -0.602438 8.188812 0.370695
v -0.453480 7.902771 0.047322
v -0.453480 8.172673 0.047322
v -0.233051 7.924737 -0.471416
v -0.233051 8.194639 -0.471416
v -0.155572 7.950057 -0.823309
v -0.155572 8.219958 -0.823309
v -0.155572 7.950057 -0.823309
v -0.155572 8.219958 -0.823309
v -0.639026 7.918910 0.370695
v -0.639026 8.188812 0.370695
v -0.602438 7.918910 0.370695
v -0.602438 8.188812 0.370695
vt 1.000000 0.500000
vt 1.000000 1.000000
vt 0.923077 1.000000
vt 0.923077 0.500000
vt 0.846154 1.000000
vt 0.846154 0.500000
vt 0.769231 1.000000
vt 0.769231 0.500000
vt 0.692308 1.000000
vt 0.692308 0.500000
vt 0.615385 1.000000
vt 0.615385 0.500000
vt 0.538462 1.000000
vt 0.538462 0.500000
vt 0.461538 1.000000
vt 0.461538 0.500000
vt 0.384615 1.000000
vt 0.384615 0.500000
vt 0.307692 1.000000
vt 0.307692 0.500000
vt 0.230769 1.000000
vt 0.230769 0.500000
vt 0.153846 1.000000
vt 0.153846 0.500000
vt 0.361534 0.462509
vt 0.250000 0.490000
vt 0.138467 0.462510
vt 0.052484 0.386336
vt 0.011750 0.278929
vt 0.025596 0.164895
vt 0.090851 0.070357
vt 0.192564 0.016974
vt 0.307436 0.016974
vt 0.409149 0.070357
vt 0.474404 0.164895
vt 0.488250 0.278929
vt 0.447516 0.386336
vt 0.076923 1.000000
vt 0.076923 0.500000
vt 0.000000 1.000000
vt 0.000000 0.500000
vt 0.750000 0.490000
vt 0.861534 0.462509
vt 0.947516 0.386336
vt 0.988250 0.278929
vt 0.974404 0.164895
vt 0.909149 0.070357
vt 0.807436 0.016974
vt 0.692564 0.016974
vt 0.590851 0.070357
vt 0.525596 0.164895
vt 0.511750 0.278929
vt 0.552484 0.386336
vt 0.638467 0.462510
vn 0.4535 0.0000 -0.8913
vn 0.4749 0.0000 -0.8801
vn 0.7927 0.0000 0.6096
vn 0.9022 0.0000 0.4314
vn 0.9098 -0.0139 0.4148
vn 0.8942 -0.0485 0.4451
vn -0.2698 -0.1097 0.9566
vn -0.3545 -0.0367 0.9344
vn -0.5900 0.0000 0.8074
vn -0.9083 -0.0000 -0.4184
vn -0.9204 0.0000 -0.3911
vn -0.0325 0.9995 -0.0045
vn -0.9766 0.0000 -0.2150
vn 0.4056 0.0000 -0.9141
vn 0.0325 -0.9995 0.0046
usemtl Material.002
s off
f 41/71/31 42/72/31 44/73/31 43/74/31
f 43/74/32 44/73/32 46/75/32 45/76/32
f 45/76/33 46/75/33 48/77/33 47/78/33
f 47/78/34 48/77/34 50/79/34 49/80/34
f 49/80/35 50/79/35 52/81/35 51/82/35
f 51/82/36 52/81/36 54/83/36 53/84/36
f 53/84/37 54/83/37 56/85/37 55/86/37
f 55/86/38 56/85/38 58/87/38 57/88/38
f 57/88/39 58/87/39 60/89/39 59/90/39
f 59/90/40 60/89/40 62/91/40 61/92/40
f 61/92/41 62/91/41 64/93/41 63/94/41
f 44/95/42 42/96/42 66/97/42 64/98/42 62/99/42 60/100/42 58/101/42 56/102/42 54/103/42 52/104/42 50/105/42 48/106/42 46/107/42
f 63/94/43 64/93/43 66/108/43 65/109/43
f 65/109/44 66/108/44 42/110/44 41/111/44
f 41/112/45 43/113/45 45/114/45 47/115/45 49/116/45 51/117/45 53/118/45 55/119/45 57/120/45 59/121/45 61/122/45 63/123/45 65/124/45
l 68 67
l 70 69
l 72 71
o Cube.005_Cube.007
v 0.281619 5.879949 0.273354
v 0.914174 6.137041 0.055227
v 0.370305 6.239346 0.010069
v 1.587738 7.260691 0.186411
v 0.411585 5.429287 0.203541
v 2.207194 5.973002 0.328390
v 1.712472 5.808657 0.097456
v 2.348254 6.705660 0.269283
vt 0.375000 0.000000
vt 0.625000 0.000000
vt 0.625000 0.250000
vt 0.375000 0.250000
vt 0.625000 0.500000
vt 0.375000 0.500000
vt 0.625000 0.750000
vt 0.375000 0.750000
vt 0.625000 1.000000
vt 0.375000 1.000000
vt 0.125000 0.500000
vt 0.125000 0.750000
vt 0.875000 0.500000
vt 0.875000 0.750000
vn -0.0599 0.1191 0.9911
vn 0.1133 0.0704 -0.9911
vn 0.4795 -0.7003 -0.5288
vn -0.0390 0.2314 0.9721
vn -0.1302 -0.2366 -0.9629
vn -0.1599 0.0319 0.9866
usemtl Material.004
s off
f 73/125/46 74/126/46 76/127/46 75/128/46
f 75/128/47 76/127/47 80/129/47 79/130/47
f 79/130/48 80/129/48 78/131/48 77/132/48
f 77/132/49 78/131/49 74/133/49 73/134/49
f 75/135/50 79/130/50 77/132/50 73/136/50
f 80/129/51 76/137/51 74/138/51 78/131/51
